<svg width="24" height="25" viewBox="0 0 24 25" fill="none" xmlns="http://www.w3.org/2000/svg">
<path d="M19 12.29C18.5 12.42 18 12.5 17.5 12.5C14.47 12.5 12 10.03 12 7C12 5.53 12.58 4.2 13.5 3.21C13.15 2.78 12.61 2.5 12 2.5C10.9 2.5 10 3.4 10 4.5V4.79C7.03 5.67 5 8.4 5 11.5V17.5L3 19.5V20.5H21V19.5L19 17.5V12.29ZM12 23.5C13.11 23.5 14 22.61 14 21.5H10C10 22.61 10.9 23.5 12 23.5Z" fill="#FFB715"/>
<path d="M17.8795 11.8213C20.6366 11.8213 22.8795 9.57843 22.8795 6.82129C22.8795 4.06415 20.6366 1.82129 17.8795 1.82129C15.1223 1.82129 12.8795 4.06415 12.8795 6.82129C12.8795 9.57843 15.1223 11.8213 17.8795 11.8213Z" fill="#DE0606"/>
</svg>
